<svg viewBox="0 0 24 24" xmlns="http://www.w3.org/2000/svg">
  <g fill="none" fill-rule="evenodd">
    <path d="M5.04 15.17a2.52 2.52 0 1 1-2.52-2.52h2.52v2.52z" fill="#36C5F0"/>
    <path d="M6.3 15.17a2.52 2.52 0 0 1 2.52-2.52h6.3a2.52 2.52 0 0 1 2.52 2.52v6.3a2.52 2.52 0 0 1-2.52 2.52h-6.3a2.52 2.52 0 0 1-2.52-2.52v-6.3z" fill="#36C5F0"/>
    <path d="M8.82 5.04a2.52 2.52 0 1 1 2.52 2.52V5.04z" fill="#2EB67D"/>
    <path d="M8.82 6.3a2.52 2.52 0 0 1 2.52 2.52v6.3a2.52 2.52 0 0 1-2.52 2.52H2.52A2.52 2.52 0 0 1 0 15.14v-6.3a2.52 2.52 0 0 1 2.52-2.52h6.3z" fill="#2EB67D"/>
    <path d="M18.96 8.82a2.52 2.52 0 1 1 2.52 2.52h-2.52V8.82z" fill="#ECB22E"/>
    <path d="M17.7 8.82a2.52 2.52 0 0 1-2.52 2.52h-6.3a2.52 2.52 0 0 1-2.52-2.52V2.52A2.52 2.52 0 0 1 8.88 0h6.3a2.52 2.52 0 0 1 2.52 2.52v6.3z" fill="#ECB22E"/>
    <path d="M15.18 18.96a2.52 2.52 0 1 1-2.52-2.52v2.52z" fill="#E01E5A"/>
    <path d="M15.18 17.7a2.52 2.52 0 0 1-2.52-2.52v-6.3a2.52 2.52 0 0 1 2.52-2.52h6.3a2.52 2.52 0 0 1 2.52 2.52v6.3a2.52 2.52 0 0 1-2.52 2.52h-6.3z" fill="#E01E5A"/>
  </g>
</svg>